<svg viewBox="0 0 640 400" data-background-color="#000000" preserveAspectRatio="xMidYMid meet" height="400" width="640" xmlns="http://www.w3.org/2000/svg" xmlns:xlink="http://www.w3.org/1999/xlink"><rect width="640" height="400" x="0" y="0" opacity="1" fill="#000000" data-fill-palette-color="background" id="background"></rect><g id="tight-bounds" transform="matrix(1,0,0,1,122.24000000000001,158.19063206798498)"><svg viewBox="0 0 395.52 83.61873586403003" height="83.61873586403003" width="395.52"><g><svg viewBox="0 0 545.8581208778711 115.40242220095692" height="83.61873586403003" width="395.52"><g transform="matrix(1,0,0,1,150.33812087787112,15.949249377990434)"><svg viewBox="0 0 395.52 83.50392344497605" height="83.50392344497605" width="395.52"><g id="textblocktransform"><svg viewBox="0 0 395.52 83.50392344497605" height="83.50392344497605" width="395.52" id="textblock"><g><svg viewBox="0 0 395.52 83.50392344497605" height="83.50392344497605" width="395.52"><g transform="matrix(1,0,0,1,0,0)"><svg width="395.52" viewBox="4 -34.75 167.19000244140625 35.29999923706055" height="83.50392344497605" data-palette-color="url(#490eacee-eabd-499f-9550-e0141af12f0d)"></svg></g></svg></g></svg></g></svg></g><g><svg viewBox="0 0 130.62484864667496 115.40242220095692" height="115.40242220095692" width="130.62484864667496"><g><svg xmlns="http://www.w3.org/2000/svg" xml:space="preserve" viewBox="0.4999999403953552 8.099998474121094 127 112.19999694824219" x="0" y="0" height="115.40242220095692" width="130.62484864667496" class="icon-icon-0" data-fill-palette-color="accent" id="icon-0"></svg></g></svg></g></svg></g><defs></defs><mask id="ad657ccf-c261-4bc3-b130-de999d5a6150"><g id="SvgjsG4814"><svg viewBox="0 0 395.52 83.61873586403003" height="83.61873586403003" width="395.52"><g><svg viewBox="0 0 545.8581208778711 115.40242220095692" height="83.61873586403003" width="395.52"><g transform="matrix(1,0,0,1,150.33812087787112,15.949249377990434)"><svg viewBox="0 0 395.52 83.50392344497605" height="83.50392344497605" width="395.52"><g id="SvgjsG4813"><svg viewBox="0 0 395.52 83.50392344497605" height="83.50392344497605" width="395.52" id="SvgjsSvg4812"><g><svg viewBox="0 0 395.52 83.50392344497605" height="83.50392344497605" width="395.52"><g transform="matrix(1,0,0,1,0,0)"><svg width="395.52" viewBox="4 -34.75 167.19000244140625 35.29999923706055" height="83.50392344497605" data-palette-color="url(#490eacee-eabd-499f-9550-e0141af12f0d)"><path d="M4-33.5L11.1-34.75 10.55-18.45 23.3-34.65 28.4-31.25 16.9-17.9 29.1-3.45 22.7 0.55 10.5-16.7 10.4-13 11 0 4 0 4.6-12.15 4-33.5ZM46.3-12.65Q46.3-16.1 45.7-17.25 45.1-18.4 42.9-18.4 40.7-18.4 37.9-16.65L37.9-16.65 37.9-13 38.45-1.25 31.75 0 32.35-12.15Q32.15-18.85 31.25-24.15L31.25-24.15 37.3-25.45Q37.65-22.55 37.8-19.8L37.8-19.8Q38.55-20.8 39.5-21.78 40.45-22.75 42.5-23.98 44.55-25.2 46.82-25.2 49.1-25.2 50.65-23.43 52.2-21.65 52.2-18.6L52.2-18.6 51.9-13 52.45-1 45.7 0.25 46.3-12.65ZM56.45-10.45Q56.45-16.85 59.9-21.3 63.34-25.75 67.97-25.75 72.59-25.75 75.17-22.75 77.75-19.75 77.75-14.8L77.75-14.8Q77.75-8.2 74.42-3.83 71.09 0.55 66.05 0.55L66.05 0.55Q61.9 0.55 59.17-2.58 56.45-5.7 56.45-10.45L56.45-10.45ZM72.15-12.2L72.15-12.2Q72.15-19.45 67.2-19.45L67.2-19.45Q62.05-19.45 62.05-12.65L62.05-12.65Q62.05-9.1 63.5-7.1 64.95-5.1 67.32-5.1 69.7-5.1 70.92-6.93 72.15-8.75 72.15-12.2ZM81.09-24.2L83.99-24.2 83.99-29.65 90.74-30.95 90.09-24.2 96.14-24.2 95.59-20.1 89.89-20.1 89.64-9.65Q89.64-7.3 90.09-6.53 90.54-5.75 91.74-5.75 92.94-5.75 94.94-6.3L94.94-6.3 95.24-2.75Q91.94 0 89.44 0 86.94 0 85.34-1.83 83.74-3.65 83.74-6.6L83.74-6.6 84.04-12.2 83.99-20.1 80.54-20.1 81.09-24.2ZM111.14 0.55L111.14 0.55Q107.59 0.55 100.89 0L100.89 0 101.49-12.15 100.89-34.5 114.24-34.5Q120.99-34.5 124.79-30.45 128.59-26.4 128.59-19.2L128.59-19.2Q128.59-10.1 123.89-4.78 119.19 0.55 111.14 0.55ZM112.44-29.1L112.44-29.1Q109.14-29.1 107.79-29.05L107.79-29.05 107.29-13 107.64-4.9Q111.84-4.6 113.29-4.6L113.29-4.6Q117.24-4.6 119.52-7.8 121.79-11 121.79-17.1 121.79-23.2 119.57-26.15 117.34-29.1 112.44-29.1ZM131.49-10.45Q131.49-16.85 134.94-21.3 138.39-25.75 143.01-25.75 147.64-25.75 150.21-22.75 152.79-19.75 152.79-14.8L152.79-14.8Q152.79-8.2 149.46-3.83 146.14 0.55 141.09 0.55L141.09 0.55Q136.94 0.55 134.21-2.58 131.49-5.7 131.49-10.45L131.49-10.45ZM147.19-12.2L147.19-12.2Q147.19-19.45 142.24-19.45L142.24-19.45Q137.09-19.45 137.09-12.65L137.09-12.65Q137.09-9.1 138.54-7.1 139.99-5.1 142.36-5.1 144.74-5.1 145.96-6.93 147.19-8.75 147.19-12.2ZM156.14-24.2L159.04-24.2 159.04-29.65 165.79-30.95 165.14-24.2 171.19-24.2 170.64-20.1 164.94-20.1 164.69-9.65Q164.69-7.3 165.14-6.53 165.59-5.75 166.79-5.75 167.99-5.75 169.99-6.3L169.99-6.3 170.29-2.75Q166.99 0 164.49 0 161.99 0 160.39-1.83 158.79-3.65 158.79-6.6L158.79-6.6 159.09-12.2 159.04-20.1 155.59-20.1 156.14-24.2Z" opacity="1" transform="matrix(1,0,0,1,0,0)" fill="white" class="wordmark-text-0" id="SvgjsPath4811"></path></svg></g></svg></g></svg></g></svg></g><g><svg viewBox="0 0 130.62484864667496 115.40242220095692" height="115.40242220095692" width="130.62484864667496"><g><svg xmlns="http://www.w3.org/2000/svg" xml:space="preserve" viewBox="0.4999999403953552 8.099998474121094 127 112.19999694824219" x="0" y="0" height="115.40242220095692" width="130.62484864667496" class="icon-icon-0" data-fill-palette-color="accent" id="SvgjsSvg4810"><path d="M9.8 52.7v10.4c0 0.4 0.3 0.8 0.8 0.8 0.4 0 0.8-0.3 0.8-0.8V52.7c0-0.4-0.3-0.8-0.8-0.8s-0.8 0.3-0.8 0.8M10.6 70.6c0.4 0 0.8-0.3 0.8-0.8v-3.4c0-0.4-0.3-0.8-0.8-0.8-0.4 0-0.8 0.3-0.8 0.8v3.4c0 0.5 0.3 0.8 0.8 0.8M121.7 47.4c0-0.4-0.3-0.8-0.8-0.8-0.4 0-0.8 0.3-0.8 0.8v10.4c0 0.4 0.3 0.8 0.8 0.8 0.4 0 0.8-0.3 0.8-0.8zM121 60.5c-0.4 0-0.8 0.3-0.8 0.8v3.4c0 0.4 0.3 0.8 0.8 0.8 0.4 0 0.8-0.3 0.8-0.8v-3.4c-0.1-0.5-0.4-0.8-0.8-0.8M6.6 106c-0.3-0.3-0.8-0.3-1.1 0s-0.3 0.8 0 1.1l1.5 1.5c0.1 0.1 0.3 0.2 0.5 0.2s0.4-0.1 0.5-0.2c0.3-0.3 0.3-0.8 0-1.1zM11.3 110.7c-0.3-0.3-0.8-0.3-1.1 0s-0.3 0.8 0 1.1l1.5 1.5c0.1 0.1 0.3 0.2 0.5 0.2s0.4-0.1 0.5-0.2c0.3-0.3 0.3-0.8 0-1.1zM7 110.7l-1.5 1.5c-0.3 0.3-0.3 0.8 0 1.1 0.1 0.1 0.3 0.2 0.5 0.2s0.4-0.1 0.5-0.2l1.5-1.5c0.3-0.3 0.3-0.8 0-1.1s-0.8-0.3-1 0M11.7 106l-1.5 1.5c-0.3 0.3-0.3 0.8 0 1.1 0.1 0.1 0.3 0.2 0.5 0.2s0.4-0.1 0.5-0.2l1.5-1.5c0.3-0.3 0.3-0.8 0-1.1s-0.7-0.3-1 0M84.2 101.3c-0.3-0.3-0.8-0.3-1.1 0s-0.3 0.8 0 1.1l1.5 1.5c0.1 0.1 0.3 0.2 0.5 0.2s0.4-0.1 0.5-0.2c0.3-0.3 0.3-0.8 0-1.1zM88.9 106c-0.3-0.3-0.8-0.3-1.1 0s-0.3 0.8 0 1.1l1.5 1.5c0.1 0.1 0.3 0.2 0.5 0.2s0.4-0.1 0.5-0.2c0.3-0.3 0.3-0.8 0-1.1zM84.6 106l-1.5 1.5c-0.3 0.3-0.3 0.8 0 1.1 0.1 0.1 0.3 0.2 0.5 0.2s0.4-0.1 0.5-0.2l1.5-1.5c0.3-0.3 0.3-0.8 0-1.1-0.2-0.3-0.7-0.3-1 0M89.3 101.3l-1.5 1.5c-0.3 0.3-0.3 0.8 0 1.1 0.1 0.1 0.3 0.2 0.5 0.2s0.4-0.1 0.5-0.2l1.5-1.5c0.3-0.3 0.3-0.8 0-1.1-0.2-0.3-0.7-0.3-1 0M70.7 19.7c0.1 0.1 0.3 0.2 0.5 0.2s0.4-0.1 0.5-0.2c0.3-0.3 0.3-0.8 0-1.1l-1.5-1.5c-0.3-0.3-0.8-0.3-1.1 0s-0.3 0.8 0 1.1zM75.4 24.4c0.1 0.1 0.3 0.2 0.5 0.2s0.4-0.1 0.5-0.2c0.3-0.3 0.3-0.8 0-1.1l-1.5-1.5c-0.3-0.3-0.8-0.3-1.1 0s-0.3 0.8 0 1.1zM69.8 24.6c0.2 0 0.4-0.1 0.5-0.2l1.5-1.5c0.3-0.3 0.3-0.8 0-1.1s-0.8-0.3-1.1 0l-1.5 1.5c-0.3 0.3-0.3 0.8 0 1.1 0.2 0.1 0.4 0.2 0.6 0.2M74.5 19.9c0.2 0 0.4-0.1 0.5-0.2l1.5-1.5c0.3-0.3 0.3-0.8 0-1.1s-0.8-0.3-1.1 0L74 18.6c-0.3 0.3-0.3 0.8 0 1.1 0.1 0.1 0.3 0.2 0.5 0.2M3.5 37.8c0.2 0.2 0.3 0.3 0.5 0.3s0.4-0.1 0.5-0.2c0.3-0.3 0.3-0.8 0-1.1L3 35.3c-0.2-0.3-0.7-0.3-1 0s-0.3 0.8 0 1.1zM7.8 40c-0.3-0.3-0.8-0.3-1.1 0s-0.3 0.8 0 1.1l1.5 1.5c0.1 0.1 0.3 0.2 0.5 0.2s0.4-0.1 0.5-0.2c0.3-0.3 0.3-0.8 0-1.1zM2 42.6c0.1 0.1 0.3 0.2 0.5 0.2s0.4-0.1 0.5-0.2l1.5-1.5c0.3-0.3 0.3-0.8 0-1.1s-0.8-0.3-1.1 0L2 41.5c-0.2 0.3-0.2 0.8 0 1.1M8.2 35.3l-1.5 1.5c-0.3 0.3-0.3 0.8 0 1.1 0.1 0.1 0.3 0.2 0.5 0.2s0.4-0.1 0.5-0.2l1.5-1.5c0.3-0.3 0.3-0.8 0-1.1-0.2-0.3-0.7-0.3-1 0M120.4 74.3c-1.8 0-3.3 1.5-3.3 3.3s1.5 3.3 3.3 3.3 3.3-1.5 3.3-3.3-1.5-3.3-3.3-3.3m0 5.1c-1 0-1.8-0.8-1.8-1.8s0.8-1.8 1.8-1.8 1.8 0.8 1.8 1.8-0.8 1.8-1.8 1.8M86.4 15.9c1.8 0 3.3-1.5 3.3-3.3s-1.5-3.3-3.3-3.3-3.3 1.5-3.3 3.3c-0.1 1.8 1.4 3.3 3.3 3.3m0-5.1c1 0 1.8 0.8 1.8 1.8s-0.8 1.8-1.8 1.8-1.8-0.8-1.8-1.8 0.8-1.8 1.8-1.8M5.2 78.7c-1.8 0-3.2 1.4-3.2 3.2s1.4 3.2 3.2 3.2 3.2-1.4 3.2-3.2-1.5-3.2-3.2-3.2m0 4.9c-0.9 0-1.7-0.8-1.7-1.7s0.8-1.7 1.7-1.7 1.7 0.8 1.7 1.7-0.8 1.7-1.7 1.7M122.5 108.6h-11.3c-0.4 0-0.8 0.3-0.8 0.8 0 0.4 0.3 0.8 0.8 0.8h11.3c0.4 0 0.8-0.3 0.8-0.8-0.1-0.5-0.4-0.8-0.8-0.8M103.9 108.6c-0.4 0-0.8 0.3-0.8 0.8 0 0.4 0.3 0.8 0.8 0.8h3.6c0.4 0 0.8-0.3 0.8-0.8 0-0.4-0.3-0.8-0.8-0.8zM111.7 112.4h-7.9c-0.4 0-0.8 0.3-0.8 0.8 0 0.4 0.3 0.8 0.8 0.8h7.9c0.4 0 0.8-0.3 0.8-0.8 0-0.4-0.4-0.8-0.8-0.8M117.6 112.4h-2.5c-0.4 0-0.8 0.3-0.8 0.8 0 0.4 0.3 0.8 0.8 0.8h2.5c0.4 0 0.8-0.3 0.8-0.8 0-0.4-0.3-0.8-0.8-0.8M8.6 17.2h11.3c0.4 0 0.8-0.3 0.8-0.8 0-0.4-0.3-0.8-0.8-0.8H8.6c-0.4 0-0.8 0.3-0.8 0.8s0.4 0.8 0.8 0.8M1.3 17.2h3.6c0.4 0 0.8-0.3 0.8-0.8 0-0.4-0.3-0.8-0.8-0.8H1.3c-0.4 0-0.8 0.3-0.8 0.8s0.3 0.8 0.8 0.8M9.1 19.6H1.3c-0.4 0-0.8 0.3-0.8 0.8 0 0.4 0.3 0.8 0.8 0.8h7.9c0.4 0 0.8-0.3 0.8-0.8-0.1-0.5-0.5-0.8-0.9-0.8M15.8 20.3c0-0.4-0.3-0.8-0.8-0.8h-2.5c-0.4 0-0.8 0.3-0.8 0.8 0 0.4 0.3 0.8 0.8 0.8H15c0.5 0 0.8-0.4 0.8-0.8M34.7 108H23.5c-0.4 0-0.8 0.3-0.8 0.8 0 0.4 0.3 0.8 0.8 0.8h11.3c0.4 0 0.8-0.3 0.8-0.8-0.1-0.5-0.4-0.8-0.9-0.8M42.1 108h-3.6c-0.4 0-0.8 0.3-0.8 0.8 0 0.4 0.3 0.8 0.8 0.8h3.6c0.4 0 0.8-0.3 0.8-0.8-0.1-0.5-0.4-0.8-0.8-0.8M42.1 104.1h-7.9c-0.4 0-0.8 0.3-0.8 0.8 0 0.4 0.3 0.8 0.8 0.8h7.9c0.4 0 0.8-0.3 0.8-0.8-0.1-0.4-0.4-0.8-0.8-0.8M30.8 105.6c0.4 0 0.8-0.3 0.8-0.8 0-0.4-0.3-0.8-0.8-0.8h-2.5c-0.4 0-0.8 0.3-0.8 0.8 0 0.4 0.3 0.8 0.8 0.8z" fill="black"></path><path d="M78.2 112.8h-4.7L70.1 97h37.2c3.7 0 6.6-3 6.6-6.6V42c7.9-1.7 13.6-8.6 13.6-16.7 0-9.4-7.7-17.1-17.1-17.1s-17.1 7.7-17.1 17.1c0 1.1 0.1 2.1 0.3 3.1H62.7v-8.6c0.1-0.2 0-0.5-0.2-0.7l-7.3-7.3c-0.1-0.1-0.1-0.1-0.2-0.1h-6.5c-0.2-2-1.9-3.6-3.9-3.6s-3.7 1.6-3.9 3.6h-1.3c-0.2-2-1.9-3.6-3.9-3.6s-3.7 1.6-3.9 3.6h-0.9c-1.6 0-3 1.3-3 3v13.9h-5.5c-3.7 0-6.6 3-6.6 6.6v55.3c0 3.7 3 6.6 6.6 6.6h37.2L56 112.9h-4.7c-1.7 0-3.2 1.4-3.2 3.2v1c0 1.7 1.4 3.2 3.2 3.2h27.1c1.7 0 3.2-1.4 3.2-3.2v-1c-0.2-1.9-1.6-3.3-3.4-3.3M110.4 9.7c8.6 0 15.6 7 15.6 15.6 0 7.6-5.4 14.1-12.9 15.4-0.9 0.2-1.8 0.2-2.7 0.2-7.2 0-13.5-4.9-15.2-11.9-0.3-1.2-0.4-2.4-0.4-3.7 0-8.6 7-15.6 15.6-15.6m-55 4.4l4.8 4.8h-4.8zM44.5 9.5c1.2 0 2.2 0.9 2.4 2.1H42c0.3-1.3 1.3-2.1 2.5-2.1m-9.1 0c1.2 0 2.2 0.9 2.4 2.1h-4.9c0.3-1.3 1.3-2.1 2.5-2.1m-6.3 5c0-0.8 0.7-1.5 1.5-1.5h7.1c-0.4 0.8-1.2 1.4-2.2 1.4-0.4 0-0.8 0.3-0.8 0.8 0 0.4 0.3 0.8 0.8 0.8 1.8 0 3.3-1.2 3.8-2.9h7.6c-0.4 0.8-1.2 1.4-2.2 1.4-0.4 0-0.8 0.3-0.8 0.8 0 0.4 0.3 0.8 0.8 0.8 1.8 0 3.3-1.2 3.8-2.9H54v6.6c0 0.4 0.3 0.8 0.8 0.8h6.6V54c0 0.8-0.7 1.5-1.5 1.5H30.5c-0.8 0-1.5-0.7-1.5-1.5V14.5zM17 35.1c0-2.8 2.3-5.1 5.1-5.1h5.5v24c0 1.6 1.3 3 3 3h29.2c1.6 0 3-1.3 3-3V29.9H94c2.1 7.4 8.8 12.5 16.5 12.5 0.7 0 1.3-0.1 2-0.1v45.5H17z m5.1 60.4c-2.8 0-5.1-2.3-5.1-5.1v-1h95.5v1c0 2.8-2.3 5.1-5.1 5.1H22.1M60.8 97h7.7l3.4 15.8H57.4z m19.1 19.9c0 0.9-0.7 1.6-1.6 1.6H51.2c-0.9 0-1.6-0.7-1.6-1.6v-1c0-0.9 0.7-1.6 1.6-1.6h27c0.9 0 1.6 0.7 1.6 1.6v1z" fill="black"></path><path d="M83.4 54.1c-2.6 2.5-2.6 6.6-0.1 9.2 1.3 1.3 3 2 4.6 2s3.3-0.6 4.5-1.8c2.6-2.5 2.6-6.6 0.1-9.2-2.4-2.7-6.5-2.7-9.1-0.2m8 8.2c-2 1.9-5.1 1.9-7-0.1s-1.9-5.1 0.1-7 5.1-1.9 7 0.1c1.9 1.9 1.9 5.1-0.1 7" fill="black"></path><path d="M104.3 54.5c-0.1-0.4-0.5-0.6-0.9-0.5L99 55c-0.5-1.5-1.2-2.8-2.3-4l3.2-3.2c0.3-0.3 0.3-0.8 0-1.1s-0.8-0.3-1.1 0l-3.2 3.2c-1.2-1.1-2.6-1.8-4.1-2.3l1.1-4.3c0.1-0.4-0.1-0.8-0.5-0.9s-0.8 0.1-0.9 0.5l-1.1 4.3q-2.25-0.45-4.5 0L84.4 43c-0.1-0.4-0.5-0.6-0.9-0.5s-0.6 0.5-0.5 0.9l1.2 4.3c-1.4 0.5-2.7 1.2-3.9 2.3l-3.1-3.1c-0.3-0.3-0.8-0.3-1.1 0s-0.3 0.8 0 1.1l3.1 3.1c-1 1.2-1.8 2.5-2.3 4L72.7 54c-0.4-0.1-0.8 0.1-0.9 0.5s0.1 0.8 0.5 0.9l4.2 1.1c-0.3 1.5-0.3 3.1 0 4.6l-4.2 1.1c-0.4 0.1-0.6 0.5-0.5 0.9 0.1 0.3 0.4 0.6 0.7 0.6h0.2l4.2-1.1q0.6 1.65 1.5 3l-1.6 1.6c-0.6-0.2-1.2-0.1-1.7 0.3L64.7 77.8c-1 1-1 2.7 0 3.7l0.5 0.5c0.5 0.5 1.2 0.8 1.8 0.8 0.7 0 1.3-0.3 1.8-0.8l10.4-10.4c0.3-0.3 0.5-0.7 0.5-1.1 0-0.2 0-0.4-0.1-0.6l1.6-1.6c0.9 0.7 2 1.2 3 1.5L83.1 74c-0.1 0.4 0.1 0.8 0.5 0.9h0.2c0.3 0 0.6-0.2 0.7-0.6l1.1-4.2c0.7 0.1 1.5 0.2 2.3 0.2s1.6-0.1 2.3-0.2l1.1 4.2c0.1 0.3 0.4 0.6 0.7 0.6h0.2c0.4-0.1 0.6-0.5 0.5-0.9l-1.1-4.2c1.4-0.5 2.8-1.2 3.9-2.3l3.1 3.1c0.1 0.1 0.3 0.2 0.5 0.2s0.4-0.1 0.5-0.2c0.3-0.3 0.3-0.8 0-1.1l-3.1-3.1c1-1.2 1.8-2.5 2.3-3.9l4.3 1.2h0.2c0.3 0 0.6-0.2 0.7-0.6s-0.1-0.8-0.5-0.9L99.4 61q0.45-2.25 0-4.5l4.3-1.1c0.4-0.1 0.7-0.5 0.6-0.9M67.8 80.9c-0.4 0.4-1.1 0.4-1.6 0l-0.5-0.5c-0.4-0.4-0.4-1.1 0-1.6l10.5-10.4 2 2z m10.8-12.2l-0.7-0.7 1.4-1.4 0.7 0.7zM95 66c-4 3.9-10.5 3.8-14.4-0.2s-3.8-10.5 0.2-14.4 10.5-3.8 14.4 0.2S99.1 62.1 95 66M110.4 27.4h0.2l2 4c0.1 0.3 0.4 0.4 0.7 0.4 0.1 0 0.2 0 0.3-0.1 0.4-0.2 0.5-0.6 0.3-1l-2-4 0.1-0.1c0-0.1 0.1-0.1 0.1-0.2 0.1-0.1 0.1-0.2 0.2-0.4 0-0.1 0.1-0.1 0.1-0.2 0.1-0.2 0.1-0.4 0.1-0.6v-0.1l8.1-3.7c0.4-0.2 0.5-0.6 0.4-1-0.2-0.4-0.6-0.5-1-0.4l-8.1 3.7q-0.6-0.6-1.5-0.6c-1.2 0-2.1 0.9-2.1 2.1 0 1.3 0.9 2.2 2.1 2.2M110.4 14.2c0.4 0 0.8-0.3 0.8-0.8v-1.8c0-0.4-0.3-0.8-0.8-0.8-0.4 0-0.8 0.3-0.8 0.8v1.8c0 0.5 0.4 0.8 0.8 0.8M96.7 26.1h1.8c0.4 0 0.8-0.3 0.8-0.8 0-0.4-0.3-0.8-0.8-0.8h-1.8c-0.4 0-0.8 0.3-0.8 0.8 0.1 0.4 0.4 0.8 0.8 0.8M110.4 36.3c-0.4 0-0.8 0.3-0.8 0.8v1.8c0 0.4 0.3 0.8 0.8 0.8 0.4 0 0.8-0.3 0.8-0.8v-1.8c-0.1-0.4-0.4-0.8-0.8-0.8M122.2 26.1h1.8c0.4 0 0.8-0.3 0.8-0.8 0-0.4-0.3-0.8-0.8-0.8h-1.8c-0.4 0-0.8 0.3-0.8 0.8 0 0.4 0.4 0.8 0.8 0.8M58.3 63.1H23.5c-0.4 0-0.8 0.3-0.8 0.8 0 0.4 0.3 0.8 0.8 0.8h34.9c0.4 0 0.8-0.3 0.8-0.8-0.1-0.5-0.5-0.8-0.9-0.8M58.3 68.9H23.5c-0.4 0-0.8 0.3-0.8 0.8 0 0.4 0.3 0.8 0.8 0.8h34.9c0.4 0 0.8-0.3 0.8-0.8-0.1-0.5-0.5-0.8-0.9-0.8M58.3 74.6H23.5c-0.4 0-0.8 0.3-0.8 0.8 0 0.4 0.3 0.8 0.8 0.8h34.9c0.4 0 0.8-0.3 0.8-0.8-0.1-0.4-0.5-0.8-0.9-0.8M47.8 80.4H23.5c-0.4 0-0.8 0.3-0.8 0.8 0 0.4 0.3 0.8 0.8 0.8h24.3c0.4 0 0.8-0.3 0.8-0.8-0.1-0.5-0.4-0.8-0.8-0.8M36.3 27.9H54c0.4 0 0.8-0.3 0.8-0.8 0-0.4-0.3-0.8-0.8-0.8H36.3c-0.4 0-0.8 0.3-0.8 0.8s0.4 0.8 0.8 0.8M36.3 33.7H54c0.4 0 0.8-0.3 0.8-0.8 0-0.4-0.3-0.8-0.8-0.8H36.3c-0.4 0-0.8 0.3-0.8 0.8s0.4 0.8 0.8 0.8M36.3 39.5H54c0.4 0 0.8-0.3 0.8-0.8 0-0.4-0.3-0.8-0.8-0.8H36.3c-0.4 0-0.8 0.3-0.8 0.8 0 0.4 0.4 0.8 0.8 0.8M36.3 45.2h12.4c0.4 0 0.8-0.3 0.8-0.8 0-0.4-0.3-0.8-0.8-0.8H36.3c-0.4 0-0.8 0.3-0.8 0.8s0.4 0.8 0.8 0.8" fill="black"></path></svg></g></svg></g></svg></g><defs><mask></mask></defs></svg><rect width="395.52" height="83.61873586403003" fill="black" stroke="none" visibility="hidden"></rect></g></mask><linearGradient x1="0" x2="1" y1="0.5" y2="0.5" id="490eacee-eabd-499f-9550-e0141af12f0d"><stop stop-color="#f00b51" offset="0"></stop><stop stop-color="#730062" offset="1"></stop></linearGradient><rect width="395.5199890136719" height="83.61873626708984" fill="url(#490eacee-eabd-499f-9550-e0141af12f0d)" mask="url(#ad657ccf-c261-4bc3-b130-de999d5a6150)" data-fill-palette-color="primary"></rect><mask id="54ed8840-5b29-4465-9d2e-5793962bc862"><g id="SvgjsG4833"><svg viewBox="0 0 395.52 83.61873586403003" height="83.61873586403003" width="395.52"><g><svg viewBox="0 0 545.8581208778711 115.40242220095692" height="83.61873586403003" width="395.52"><g transform="matrix(1,0,0,1,150.33812087787112,15.949249377990434)"><svg viewBox="0 0 395.52 83.50392344497605" height="83.50392344497605" width="395.52"><g id="SvgjsG4832"><svg viewBox="0 0 395.52 83.50392344497605" height="83.50392344497605" width="395.52" id="SvgjsSvg4831"><g><svg viewBox="0 0 395.52 83.50392344497605" height="83.50392344497605" width="395.52"><g transform="matrix(1,0,0,1,0,0)"><svg width="395.52" viewBox="4 -34.75 167.19000244140625 35.29999923706055" height="83.50392344497605" data-palette-color="url(#490eacee-eabd-499f-9550-e0141af12f0d)"></svg></g></svg></g></svg></g></svg></g><g><svg viewBox="0 0 130.62484864667496 115.40242220095692" height="115.40242220095692" width="130.62484864667496"><g><svg xmlns="http://www.w3.org/2000/svg" xml:space="preserve" viewBox="0.4999999403953552 8.099998474121094 127 112.19999694824219" x="0" y="0" height="115.40242220095692" width="130.62484864667496" class="icon-icon-0" data-fill-palette-color="accent" id="SvgjsSvg4830"><path d="M9.8 52.7v10.4c0 0.4 0.3 0.8 0.8 0.8 0.4 0 0.8-0.3 0.8-0.8V52.7c0-0.4-0.3-0.8-0.8-0.8s-0.8 0.3-0.8 0.8M10.6 70.6c0.4 0 0.8-0.3 0.8-0.8v-3.4c0-0.4-0.3-0.8-0.8-0.8-0.4 0-0.8 0.3-0.8 0.8v3.4c0 0.5 0.3 0.8 0.8 0.8M121.7 47.4c0-0.4-0.3-0.8-0.8-0.8-0.4 0-0.8 0.3-0.8 0.8v10.4c0 0.4 0.3 0.8 0.8 0.8 0.4 0 0.8-0.3 0.8-0.8zM121 60.5c-0.4 0-0.8 0.3-0.8 0.8v3.4c0 0.4 0.3 0.8 0.8 0.8 0.4 0 0.8-0.3 0.8-0.8v-3.4c-0.1-0.5-0.4-0.8-0.8-0.8M6.6 106c-0.3-0.3-0.8-0.3-1.1 0s-0.3 0.8 0 1.1l1.5 1.5c0.1 0.1 0.3 0.2 0.5 0.2s0.4-0.1 0.5-0.2c0.3-0.3 0.3-0.8 0-1.1zM11.3 110.7c-0.3-0.3-0.8-0.3-1.1 0s-0.3 0.8 0 1.1l1.5 1.5c0.1 0.1 0.3 0.2 0.5 0.2s0.4-0.1 0.5-0.2c0.3-0.3 0.3-0.8 0-1.1zM7 110.7l-1.5 1.5c-0.3 0.3-0.3 0.8 0 1.1 0.1 0.1 0.3 0.2 0.5 0.2s0.4-0.1 0.5-0.2l1.5-1.5c0.3-0.3 0.3-0.8 0-1.1s-0.8-0.3-1 0M11.7 106l-1.5 1.5c-0.3 0.3-0.3 0.8 0 1.1 0.1 0.1 0.3 0.2 0.5 0.2s0.4-0.1 0.5-0.2l1.5-1.5c0.3-0.3 0.3-0.8 0-1.1s-0.7-0.3-1 0M84.2 101.3c-0.3-0.3-0.8-0.3-1.1 0s-0.3 0.8 0 1.1l1.5 1.5c0.1 0.1 0.3 0.2 0.5 0.2s0.4-0.1 0.5-0.2c0.3-0.3 0.3-0.8 0-1.1zM88.9 106c-0.3-0.3-0.8-0.3-1.1 0s-0.3 0.8 0 1.1l1.5 1.5c0.1 0.1 0.3 0.2 0.5 0.2s0.4-0.1 0.5-0.2c0.3-0.3 0.3-0.8 0-1.1zM84.6 106l-1.5 1.5c-0.3 0.3-0.3 0.8 0 1.1 0.1 0.1 0.3 0.2 0.5 0.2s0.4-0.1 0.5-0.2l1.5-1.5c0.3-0.3 0.3-0.8 0-1.1-0.2-0.3-0.7-0.3-1 0M89.3 101.3l-1.5 1.5c-0.3 0.3-0.3 0.8 0 1.1 0.1 0.1 0.3 0.2 0.5 0.2s0.4-0.1 0.5-0.2l1.5-1.5c0.3-0.3 0.3-0.8 0-1.1-0.2-0.3-0.7-0.3-1 0M70.7 19.7c0.1 0.1 0.3 0.2 0.5 0.2s0.4-0.1 0.5-0.2c0.3-0.3 0.3-0.8 0-1.1l-1.5-1.5c-0.3-0.3-0.8-0.3-1.1 0s-0.3 0.8 0 1.1zM75.4 24.4c0.1 0.1 0.3 0.2 0.5 0.2s0.4-0.1 0.5-0.2c0.3-0.3 0.3-0.8 0-1.1l-1.5-1.5c-0.3-0.3-0.8-0.3-1.1 0s-0.3 0.8 0 1.1zM69.8 24.6c0.2 0 0.4-0.1 0.5-0.2l1.5-1.5c0.3-0.3 0.3-0.8 0-1.1s-0.8-0.3-1.1 0l-1.5 1.5c-0.3 0.3-0.3 0.8 0 1.1 0.2 0.1 0.4 0.2 0.6 0.2M74.5 19.9c0.2 0 0.4-0.1 0.5-0.2l1.5-1.5c0.3-0.3 0.3-0.8 0-1.1s-0.8-0.3-1.1 0L74 18.6c-0.3 0.3-0.3 0.8 0 1.1 0.1 0.1 0.3 0.2 0.5 0.2M3.5 37.8c0.2 0.2 0.3 0.3 0.5 0.3s0.4-0.1 0.5-0.2c0.3-0.3 0.3-0.8 0-1.1L3 35.3c-0.2-0.3-0.7-0.3-1 0s-0.3 0.8 0 1.1zM7.8 40c-0.3-0.3-0.8-0.3-1.1 0s-0.3 0.8 0 1.1l1.5 1.5c0.1 0.1 0.3 0.2 0.5 0.2s0.4-0.1 0.5-0.2c0.3-0.3 0.3-0.8 0-1.1zM2 42.6c0.1 0.1 0.3 0.2 0.5 0.2s0.4-0.1 0.5-0.2l1.5-1.5c0.3-0.3 0.3-0.8 0-1.1s-0.8-0.3-1.1 0L2 41.5c-0.2 0.3-0.2 0.8 0 1.1M8.2 35.3l-1.5 1.5c-0.3 0.3-0.3 0.8 0 1.1 0.1 0.1 0.3 0.2 0.5 0.2s0.4-0.1 0.5-0.2l1.5-1.5c0.3-0.3 0.3-0.8 0-1.1-0.2-0.3-0.7-0.3-1 0M120.4 74.3c-1.8 0-3.3 1.5-3.3 3.3s1.5 3.3 3.3 3.3 3.3-1.5 3.3-3.3-1.5-3.3-3.3-3.3m0 5.1c-1 0-1.8-0.8-1.8-1.8s0.8-1.8 1.8-1.8 1.8 0.8 1.8 1.8-0.8 1.8-1.8 1.8M86.4 15.9c1.8 0 3.3-1.5 3.3-3.3s-1.5-3.3-3.3-3.3-3.3 1.5-3.3 3.3c-0.1 1.8 1.4 3.3 3.3 3.3m0-5.1c1 0 1.8 0.8 1.8 1.8s-0.8 1.8-1.8 1.8-1.8-0.8-1.8-1.8 0.8-1.8 1.8-1.8M5.2 78.7c-1.8 0-3.2 1.4-3.2 3.2s1.4 3.2 3.2 3.2 3.2-1.4 3.2-3.2-1.5-3.2-3.2-3.2m0 4.9c-0.9 0-1.7-0.8-1.7-1.7s0.8-1.7 1.7-1.7 1.7 0.8 1.7 1.7-0.8 1.7-1.7 1.7M122.5 108.6h-11.3c-0.4 0-0.8 0.3-0.8 0.8 0 0.4 0.3 0.8 0.8 0.8h11.3c0.4 0 0.8-0.3 0.8-0.8-0.1-0.5-0.4-0.8-0.8-0.8M103.9 108.6c-0.4 0-0.8 0.3-0.8 0.8 0 0.4 0.3 0.8 0.8 0.8h3.6c0.4 0 0.8-0.3 0.8-0.8 0-0.4-0.3-0.8-0.8-0.8zM111.7 112.4h-7.9c-0.4 0-0.8 0.3-0.8 0.8 0 0.4 0.3 0.8 0.8 0.8h7.9c0.4 0 0.8-0.3 0.8-0.8 0-0.4-0.4-0.8-0.8-0.8M117.6 112.4h-2.5c-0.4 0-0.8 0.3-0.8 0.8 0 0.4 0.3 0.8 0.8 0.8h2.5c0.4 0 0.8-0.3 0.8-0.8 0-0.4-0.3-0.8-0.8-0.8M8.6 17.2h11.3c0.4 0 0.8-0.3 0.8-0.8 0-0.4-0.3-0.8-0.8-0.8H8.6c-0.4 0-0.8 0.3-0.8 0.8s0.4 0.8 0.8 0.8M1.3 17.2h3.6c0.4 0 0.8-0.3 0.8-0.8 0-0.4-0.3-0.8-0.8-0.8H1.3c-0.4 0-0.8 0.3-0.8 0.8s0.3 0.8 0.8 0.8M9.1 19.6H1.3c-0.4 0-0.8 0.3-0.8 0.8 0 0.4 0.3 0.8 0.8 0.8h7.9c0.4 0 0.8-0.3 0.8-0.8-0.1-0.5-0.5-0.8-0.9-0.8M15.8 20.3c0-0.4-0.3-0.8-0.8-0.8h-2.5c-0.4 0-0.8 0.3-0.8 0.8 0 0.4 0.3 0.8 0.8 0.8H15c0.5 0 0.8-0.4 0.8-0.8M34.7 108H23.5c-0.4 0-0.8 0.3-0.8 0.8 0 0.4 0.3 0.8 0.8 0.8h11.3c0.4 0 0.8-0.3 0.8-0.8-0.1-0.5-0.4-0.8-0.9-0.8M42.1 108h-3.6c-0.4 0-0.8 0.3-0.8 0.8 0 0.4 0.3 0.8 0.8 0.8h3.6c0.4 0 0.8-0.3 0.8-0.8-0.1-0.5-0.4-0.8-0.8-0.8M42.1 104.1h-7.9c-0.4 0-0.8 0.3-0.8 0.8 0 0.4 0.3 0.8 0.8 0.8h7.9c0.4 0 0.8-0.3 0.8-0.8-0.1-0.4-0.4-0.8-0.8-0.8M30.8 105.6c0.4 0 0.8-0.3 0.8-0.8 0-0.4-0.3-0.8-0.8-0.8h-2.5c-0.4 0-0.8 0.3-0.8 0.8 0 0.4 0.3 0.8 0.8 0.8z" fill="white"></path><path d="M78.2 112.8h-4.7L70.1 97h37.2c3.7 0 6.6-3 6.6-6.6V42c7.9-1.7 13.6-8.6 13.6-16.7 0-9.4-7.7-17.1-17.1-17.1s-17.1 7.7-17.1 17.1c0 1.1 0.1 2.1 0.3 3.1H62.7v-8.6c0.1-0.2 0-0.5-0.2-0.7l-7.3-7.3c-0.1-0.1-0.1-0.1-0.2-0.1h-6.5c-0.2-2-1.9-3.6-3.9-3.6s-3.7 1.6-3.9 3.6h-1.3c-0.2-2-1.9-3.6-3.9-3.6s-3.7 1.6-3.9 3.6h-0.9c-1.6 0-3 1.3-3 3v13.9h-5.5c-3.7 0-6.6 3-6.6 6.6v55.3c0 3.7 3 6.6 6.6 6.6h37.2L56 112.9h-4.7c-1.7 0-3.2 1.4-3.2 3.2v1c0 1.7 1.4 3.2 3.2 3.2h27.1c1.7 0 3.2-1.4 3.2-3.2v-1c-0.2-1.9-1.6-3.3-3.4-3.3M110.4 9.7c8.6 0 15.6 7 15.6 15.6 0 7.6-5.4 14.1-12.9 15.4-0.9 0.2-1.8 0.2-2.7 0.2-7.2 0-13.5-4.9-15.2-11.9-0.3-1.2-0.4-2.4-0.4-3.7 0-8.6 7-15.6 15.6-15.6m-55 4.4l4.8 4.8h-4.8zM44.5 9.5c1.2 0 2.2 0.9 2.4 2.1H42c0.3-1.3 1.3-2.1 2.5-2.1m-9.1 0c1.2 0 2.2 0.9 2.4 2.1h-4.9c0.3-1.3 1.3-2.1 2.5-2.1m-6.3 5c0-0.8 0.7-1.5 1.5-1.5h7.1c-0.4 0.8-1.2 1.4-2.2 1.4-0.4 0-0.8 0.3-0.8 0.8 0 0.4 0.3 0.8 0.8 0.8 1.8 0 3.3-1.2 3.8-2.9h7.6c-0.4 0.8-1.2 1.4-2.2 1.4-0.4 0-0.8 0.3-0.8 0.8 0 0.4 0.3 0.8 0.8 0.8 1.8 0 3.3-1.2 3.8-2.9H54v6.6c0 0.4 0.3 0.8 0.8 0.8h6.6V54c0 0.8-0.7 1.5-1.5 1.5H30.5c-0.8 0-1.5-0.7-1.5-1.5V14.5zM17 35.1c0-2.8 2.3-5.1 5.1-5.1h5.5v24c0 1.6 1.3 3 3 3h29.2c1.6 0 3-1.3 3-3V29.9H94c2.1 7.4 8.8 12.5 16.5 12.5 0.7 0 1.3-0.1 2-0.1v45.5H17z m5.1 60.4c-2.8 0-5.1-2.3-5.1-5.1v-1h95.5v1c0 2.8-2.3 5.1-5.1 5.1H22.1M60.8 97h7.7l3.4 15.8H57.4z m19.1 19.9c0 0.9-0.7 1.6-1.6 1.6H51.2c-0.9 0-1.6-0.7-1.6-1.6v-1c0-0.9 0.7-1.6 1.6-1.6h27c0.9 0 1.6 0.7 1.6 1.6v1z" fill="white"></path><path d="M83.4 54.1c-2.6 2.5-2.6 6.6-0.1 9.2 1.3 1.3 3 2 4.6 2s3.3-0.6 4.5-1.8c2.6-2.5 2.6-6.6 0.1-9.2-2.4-2.7-6.5-2.7-9.1-0.2m8 8.2c-2 1.9-5.1 1.9-7-0.1s-1.9-5.1 0.1-7 5.1-1.9 7 0.1c1.9 1.9 1.9 5.1-0.1 7" fill="white"></path><path d="M104.3 54.5c-0.1-0.4-0.5-0.6-0.9-0.5L99 55c-0.5-1.5-1.2-2.8-2.3-4l3.2-3.2c0.3-0.3 0.3-0.8 0-1.1s-0.8-0.3-1.1 0l-3.2 3.2c-1.2-1.1-2.6-1.8-4.1-2.3l1.1-4.3c0.1-0.4-0.1-0.8-0.5-0.9s-0.8 0.1-0.9 0.5l-1.1 4.3q-2.25-0.45-4.5 0L84.4 43c-0.1-0.4-0.5-0.6-0.9-0.5s-0.6 0.5-0.5 0.9l1.2 4.3c-1.4 0.5-2.7 1.2-3.9 2.3l-3.1-3.1c-0.3-0.3-0.8-0.3-1.1 0s-0.3 0.8 0 1.1l3.1 3.1c-1 1.2-1.8 2.5-2.3 4L72.7 54c-0.4-0.1-0.8 0.1-0.9 0.5s0.1 0.8 0.5 0.9l4.2 1.1c-0.3 1.5-0.3 3.1 0 4.6l-4.2 1.1c-0.4 0.1-0.6 0.5-0.5 0.9 0.1 0.3 0.4 0.6 0.7 0.6h0.2l4.2-1.1q0.6 1.65 1.5 3l-1.6 1.6c-0.6-0.2-1.2-0.1-1.7 0.3L64.7 77.8c-1 1-1 2.7 0 3.7l0.5 0.5c0.5 0.5 1.2 0.8 1.8 0.8 0.7 0 1.3-0.3 1.8-0.8l10.4-10.4c0.3-0.3 0.5-0.7 0.5-1.1 0-0.2 0-0.4-0.1-0.6l1.6-1.6c0.9 0.7 2 1.2 3 1.5L83.1 74c-0.1 0.4 0.1 0.8 0.5 0.9h0.2c0.3 0 0.6-0.2 0.7-0.6l1.1-4.2c0.7 0.1 1.5 0.2 2.3 0.2s1.6-0.1 2.3-0.2l1.1 4.2c0.1 0.3 0.4 0.6 0.7 0.6h0.2c0.4-0.1 0.6-0.5 0.5-0.9l-1.1-4.2c1.4-0.5 2.8-1.2 3.9-2.3l3.1 3.1c0.1 0.1 0.3 0.2 0.5 0.2s0.4-0.1 0.5-0.2c0.3-0.3 0.3-0.8 0-1.1l-3.1-3.1c1-1.2 1.8-2.5 2.3-3.9l4.3 1.2h0.2c0.3 0 0.6-0.2 0.7-0.6s-0.1-0.8-0.5-0.9L99.4 61q0.45-2.25 0-4.5l4.3-1.1c0.4-0.1 0.7-0.5 0.6-0.9M67.8 80.9c-0.4 0.4-1.1 0.4-1.6 0l-0.5-0.5c-0.4-0.4-0.4-1.1 0-1.6l10.5-10.4 2 2z m10.8-12.2l-0.7-0.7 1.4-1.4 0.7 0.7zM95 66c-4 3.9-10.5 3.8-14.4-0.2s-3.8-10.5 0.2-14.4 10.5-3.8 14.4 0.2S99.1 62.1 95 66M110.4 27.4h0.2l2 4c0.1 0.3 0.4 0.4 0.7 0.4 0.1 0 0.2 0 0.3-0.1 0.4-0.2 0.5-0.6 0.3-1l-2-4 0.1-0.1c0-0.1 0.1-0.1 0.1-0.2 0.1-0.1 0.1-0.2 0.2-0.4 0-0.1 0.1-0.1 0.1-0.2 0.1-0.2 0.1-0.4 0.1-0.6v-0.1l8.1-3.7c0.4-0.2 0.5-0.6 0.4-1-0.2-0.4-0.6-0.5-1-0.4l-8.1 3.7q-0.6-0.6-1.5-0.6c-1.2 0-2.1 0.9-2.1 2.1 0 1.3 0.9 2.2 2.1 2.2M110.4 14.2c0.4 0 0.8-0.3 0.8-0.8v-1.8c0-0.4-0.3-0.8-0.8-0.8-0.4 0-0.8 0.3-0.8 0.8v1.8c0 0.5 0.4 0.8 0.8 0.8M96.7 26.1h1.8c0.4 0 0.8-0.3 0.8-0.8 0-0.4-0.3-0.8-0.8-0.8h-1.8c-0.4 0-0.8 0.3-0.8 0.8 0.1 0.4 0.4 0.8 0.8 0.8M110.4 36.3c-0.4 0-0.8 0.3-0.8 0.8v1.8c0 0.4 0.3 0.8 0.8 0.8 0.4 0 0.8-0.3 0.8-0.8v-1.8c-0.1-0.4-0.4-0.8-0.8-0.8M122.2 26.1h1.8c0.4 0 0.8-0.3 0.8-0.8 0-0.4-0.3-0.8-0.8-0.8h-1.8c-0.4 0-0.8 0.3-0.8 0.8 0 0.4 0.4 0.8 0.8 0.8M58.3 63.1H23.5c-0.4 0-0.8 0.3-0.8 0.8 0 0.4 0.3 0.8 0.8 0.8h34.9c0.4 0 0.8-0.3 0.8-0.8-0.1-0.5-0.5-0.8-0.9-0.8M58.3 68.9H23.5c-0.4 0-0.8 0.3-0.8 0.8 0 0.4 0.3 0.8 0.8 0.8h34.9c0.4 0 0.8-0.3 0.8-0.8-0.1-0.5-0.5-0.8-0.9-0.8M58.3 74.6H23.5c-0.4 0-0.8 0.3-0.8 0.8 0 0.4 0.3 0.8 0.8 0.8h34.9c0.4 0 0.8-0.3 0.8-0.8-0.1-0.4-0.5-0.8-0.9-0.8M47.8 80.4H23.5c-0.4 0-0.8 0.3-0.8 0.8 0 0.4 0.3 0.8 0.8 0.8h24.3c0.4 0 0.8-0.3 0.8-0.8-0.1-0.5-0.4-0.8-0.8-0.8M36.3 27.9H54c0.4 0 0.8-0.3 0.8-0.8 0-0.4-0.3-0.8-0.8-0.8H36.3c-0.4 0-0.8 0.3-0.8 0.8s0.4 0.8 0.8 0.8M36.3 33.7H54c0.4 0 0.8-0.3 0.8-0.8 0-0.4-0.3-0.8-0.8-0.8H36.3c-0.4 0-0.8 0.3-0.8 0.8s0.4 0.8 0.8 0.8M36.3 39.5H54c0.4 0 0.8-0.3 0.8-0.8 0-0.4-0.3-0.8-0.8-0.8H36.3c-0.4 0-0.8 0.3-0.8 0.8 0 0.4 0.4 0.8 0.8 0.8M36.3 45.2h12.4c0.4 0 0.8-0.3 0.8-0.8 0-0.4-0.3-0.8-0.8-0.8H36.3c-0.4 0-0.8 0.3-0.8 0.8s0.4 0.8 0.8 0.8" fill="white"></path></svg></g></svg></g></svg></g><defs><mask></mask></defs><mask><g id="SvgjsG4829"><svg viewBox="0 0 395.52 83.61873586403003" height="83.61873586403003" width="395.52"><g><svg viewBox="0 0 545.8581208778711 115.40242220095692" height="83.61873586403003" width="395.52"><g transform="matrix(1,0,0,1,150.33812087787112,15.949249377990434)"><svg viewBox="0 0 395.52 83.50392344497605" height="83.50392344497605" width="395.52"><g id="SvgjsG4828"><svg viewBox="0 0 395.52 83.50392344497605" height="83.50392344497605" width="395.52" id="SvgjsSvg4827"><g><svg viewBox="0 0 395.52 83.50392344497605" height="83.50392344497605" width="395.52"><g transform="matrix(1,0,0,1,0,0)"><svg width="395.52" viewBox="4 -34.75 167.19000244140625 35.29999923706055" height="83.50392344497605" data-palette-color="url(#490eacee-eabd-499f-9550-e0141af12f0d)"><path d="M4-33.5L11.1-34.75 10.55-18.45 23.3-34.65 28.4-31.25 16.9-17.9 29.1-3.45 22.7 0.55 10.5-16.7 10.4-13 11 0 4 0 4.6-12.15 4-33.5ZM46.3-12.65Q46.3-16.1 45.7-17.25 45.1-18.4 42.9-18.4 40.7-18.4 37.9-16.65L37.9-16.65 37.9-13 38.45-1.25 31.75 0 32.35-12.15Q32.15-18.85 31.25-24.15L31.25-24.15 37.3-25.45Q37.65-22.55 37.8-19.8L37.8-19.8Q38.55-20.8 39.5-21.78 40.45-22.75 42.5-23.98 44.55-25.2 46.82-25.2 49.1-25.2 50.65-23.43 52.2-21.65 52.2-18.6L52.2-18.6 51.9-13 52.45-1 45.7 0.25 46.3-12.65ZM56.45-10.45Q56.45-16.85 59.9-21.3 63.34-25.75 67.97-25.75 72.59-25.75 75.17-22.75 77.75-19.75 77.75-14.8L77.75-14.8Q77.75-8.2 74.42-3.83 71.09 0.55 66.05 0.55L66.05 0.55Q61.9 0.55 59.17-2.58 56.45-5.7 56.45-10.45L56.45-10.45ZM72.15-12.2L72.15-12.2Q72.15-19.45 67.2-19.45L67.2-19.45Q62.05-19.45 62.05-12.65L62.05-12.65Q62.05-9.1 63.5-7.1 64.95-5.1 67.32-5.1 69.7-5.1 70.92-6.93 72.15-8.75 72.15-12.2ZM81.09-24.2L83.99-24.2 83.99-29.65 90.74-30.95 90.09-24.2 96.14-24.2 95.59-20.1 89.89-20.1 89.64-9.65Q89.64-7.3 90.09-6.53 90.54-5.75 91.74-5.75 92.94-5.75 94.94-6.3L94.94-6.3 95.24-2.75Q91.94 0 89.44 0 86.94 0 85.34-1.83 83.74-3.65 83.74-6.6L83.74-6.6 84.04-12.2 83.99-20.1 80.54-20.1 81.09-24.2ZM111.14 0.55L111.14 0.55Q107.59 0.55 100.89 0L100.89 0 101.49-12.15 100.89-34.5 114.24-34.5Q120.99-34.5 124.79-30.45 128.59-26.4 128.59-19.2L128.59-19.2Q128.59-10.1 123.89-4.78 119.19 0.55 111.14 0.55ZM112.44-29.1L112.44-29.1Q109.14-29.1 107.79-29.05L107.79-29.05 107.29-13 107.64-4.9Q111.84-4.6 113.29-4.6L113.29-4.6Q117.24-4.6 119.52-7.8 121.79-11 121.79-17.1 121.79-23.2 119.57-26.15 117.34-29.1 112.44-29.1ZM131.49-10.45Q131.49-16.85 134.94-21.3 138.39-25.75 143.01-25.75 147.64-25.75 150.21-22.75 152.79-19.75 152.79-14.8L152.79-14.8Q152.79-8.2 149.46-3.83 146.14 0.55 141.09 0.55L141.09 0.55Q136.94 0.55 134.21-2.58 131.49-5.7 131.49-10.45L131.49-10.45ZM147.19-12.2L147.19-12.2Q147.19-19.45 142.24-19.45L142.24-19.45Q137.09-19.45 137.09-12.65L137.09-12.65Q137.09-9.1 138.54-7.1 139.99-5.1 142.36-5.1 144.74-5.1 145.96-6.93 147.19-8.75 147.19-12.2ZM156.14-24.2L159.04-24.2 159.04-29.65 165.79-30.95 165.14-24.2 171.19-24.2 170.64-20.1 164.94-20.1 164.69-9.65Q164.69-7.3 165.14-6.53 165.59-5.75 166.79-5.75 167.99-5.75 169.99-6.3L169.99-6.3 170.29-2.75Q166.99 0 164.49 0 161.99 0 160.39-1.83 158.79-3.65 158.79-6.6L158.79-6.6 159.09-12.2 159.04-20.1 155.59-20.1 156.14-24.2Z" opacity="1" transform="matrix(1,0,0,1,0,0)" fill="black" class="wordmark-text-0" id="SvgjsPath4826"></path></svg></g></svg></g></svg></g></svg></g><g><svg viewBox="0 0 130.62484864667496 115.40242220095692" height="115.40242220095692" width="130.62484864667496"><g><svg xmlns="http://www.w3.org/2000/svg" xml:space="preserve" viewBox="0.4999999403953552 8.099998474121094 127 112.19999694824219" x="0" y="0" height="115.40242220095692" width="130.62484864667496" class="icon-icon-0" data-fill-palette-color="accent" id="SvgjsSvg4825"><path d="M9.8 52.7v10.4c0 0.4 0.3 0.8 0.8 0.8 0.4 0 0.8-0.3 0.8-0.8V52.7c0-0.4-0.3-0.8-0.8-0.8s-0.8 0.3-0.8 0.8M10.6 70.6c0.4 0 0.8-0.3 0.8-0.8v-3.4c0-0.4-0.3-0.8-0.8-0.8-0.4 0-0.8 0.3-0.8 0.8v3.4c0 0.5 0.3 0.8 0.8 0.8M121.7 47.4c0-0.4-0.3-0.8-0.8-0.8-0.4 0-0.8 0.3-0.8 0.8v10.4c0 0.4 0.3 0.8 0.8 0.8 0.4 0 0.8-0.3 0.8-0.8zM121 60.5c-0.4 0-0.8 0.3-0.8 0.8v3.4c0 0.4 0.3 0.8 0.8 0.8 0.4 0 0.8-0.3 0.8-0.8v-3.4c-0.1-0.5-0.4-0.8-0.8-0.8M6.6 106c-0.3-0.3-0.8-0.3-1.1 0s-0.3 0.8 0 1.1l1.5 1.5c0.1 0.1 0.3 0.2 0.5 0.2s0.4-0.1 0.5-0.2c0.3-0.3 0.3-0.8 0-1.1zM11.3 110.7c-0.3-0.3-0.8-0.3-1.1 0s-0.3 0.8 0 1.1l1.5 1.5c0.1 0.1 0.3 0.2 0.5 0.2s0.4-0.1 0.5-0.2c0.3-0.3 0.3-0.8 0-1.1zM7 110.7l-1.5 1.5c-0.3 0.3-0.3 0.8 0 1.1 0.1 0.1 0.3 0.2 0.5 0.2s0.4-0.1 0.5-0.2l1.5-1.5c0.3-0.3 0.3-0.8 0-1.1s-0.8-0.3-1 0M11.7 106l-1.5 1.5c-0.3 0.3-0.3 0.8 0 1.1 0.1 0.1 0.3 0.2 0.5 0.2s0.4-0.1 0.5-0.2l1.5-1.5c0.3-0.3 0.3-0.8 0-1.1s-0.7-0.3-1 0M84.2 101.3c-0.3-0.3-0.8-0.3-1.1 0s-0.3 0.8 0 1.1l1.5 1.5c0.1 0.1 0.3 0.2 0.5 0.2s0.4-0.1 0.5-0.2c0.3-0.3 0.3-0.8 0-1.1zM88.9 106c-0.3-0.3-0.8-0.3-1.1 0s-0.3 0.8 0 1.1l1.5 1.5c0.1 0.1 0.3 0.2 0.5 0.2s0.4-0.1 0.5-0.2c0.3-0.3 0.3-0.8 0-1.1zM84.6 106l-1.5 1.5c-0.3 0.3-0.3 0.8 0 1.1 0.1 0.1 0.3 0.2 0.5 0.2s0.4-0.1 0.5-0.2l1.5-1.5c0.3-0.3 0.3-0.8 0-1.1-0.2-0.3-0.7-0.3-1 0M89.3 101.3l-1.5 1.5c-0.3 0.3-0.3 0.8 0 1.1 0.1 0.1 0.3 0.2 0.5 0.2s0.4-0.1 0.5-0.2l1.5-1.5c0.3-0.3 0.3-0.8 0-1.1-0.2-0.3-0.7-0.3-1 0M70.7 19.7c0.1 0.1 0.3 0.2 0.5 0.2s0.4-0.1 0.5-0.2c0.3-0.3 0.3-0.8 0-1.1l-1.5-1.5c-0.3-0.3-0.8-0.3-1.1 0s-0.3 0.8 0 1.1zM75.4 24.4c0.1 0.1 0.3 0.2 0.5 0.2s0.4-0.1 0.5-0.2c0.3-0.3 0.3-0.8 0-1.1l-1.5-1.5c-0.3-0.3-0.8-0.3-1.1 0s-0.3 0.8 0 1.1zM69.8 24.6c0.2 0 0.4-0.1 0.5-0.2l1.5-1.5c0.3-0.3 0.3-0.8 0-1.1s-0.8-0.3-1.1 0l-1.5 1.5c-0.3 0.3-0.3 0.8 0 1.1 0.2 0.1 0.4 0.2 0.6 0.2M74.5 19.9c0.2 0 0.4-0.1 0.5-0.2l1.5-1.5c0.3-0.3 0.3-0.8 0-1.1s-0.8-0.3-1.1 0L74 18.6c-0.3 0.3-0.3 0.8 0 1.1 0.1 0.1 0.3 0.2 0.5 0.2M3.5 37.8c0.2 0.2 0.3 0.3 0.5 0.3s0.4-0.1 0.5-0.2c0.3-0.3 0.3-0.8 0-1.1L3 35.3c-0.2-0.3-0.7-0.3-1 0s-0.3 0.8 0 1.1zM7.8 40c-0.3-0.3-0.8-0.3-1.1 0s-0.3 0.8 0 1.1l1.5 1.5c0.1 0.1 0.3 0.2 0.5 0.2s0.4-0.1 0.5-0.2c0.3-0.3 0.3-0.8 0-1.1zM2 42.6c0.1 0.1 0.3 0.2 0.5 0.2s0.4-0.1 0.5-0.2l1.5-1.5c0.3-0.3 0.3-0.8 0-1.1s-0.8-0.3-1.1 0L2 41.5c-0.2 0.3-0.2 0.8 0 1.1M8.2 35.3l-1.5 1.5c-0.3 0.3-0.3 0.8 0 1.1 0.1 0.1 0.3 0.2 0.5 0.2s0.4-0.1 0.5-0.2l1.5-1.5c0.3-0.3 0.3-0.8 0-1.1-0.2-0.3-0.7-0.3-1 0M120.4 74.3c-1.8 0-3.3 1.5-3.3 3.3s1.5 3.3 3.3 3.3 3.3-1.5 3.3-3.3-1.5-3.3-3.3-3.3m0 5.1c-1 0-1.8-0.8-1.8-1.8s0.8-1.8 1.8-1.8 1.8 0.8 1.8 1.8-0.8 1.8-1.8 1.8M86.4 15.9c1.8 0 3.3-1.5 3.3-3.3s-1.5-3.3-3.3-3.3-3.3 1.5-3.3 3.3c-0.1 1.8 1.4 3.3 3.3 3.3m0-5.1c1 0 1.8 0.8 1.8 1.8s-0.8 1.8-1.8 1.8-1.8-0.8-1.8-1.8 0.8-1.8 1.8-1.8M5.2 78.7c-1.8 0-3.2 1.4-3.2 3.2s1.4 3.2 3.2 3.2 3.2-1.4 3.2-3.2-1.5-3.2-3.2-3.2m0 4.9c-0.9 0-1.7-0.8-1.7-1.7s0.8-1.7 1.7-1.7 1.7 0.8 1.7 1.7-0.8 1.7-1.7 1.7M122.5 108.6h-11.3c-0.4 0-0.8 0.3-0.8 0.8 0 0.4 0.3 0.8 0.8 0.8h11.3c0.4 0 0.8-0.3 0.8-0.8-0.1-0.5-0.4-0.8-0.8-0.8M103.9 108.6c-0.4 0-0.8 0.3-0.8 0.8 0 0.4 0.3 0.8 0.8 0.8h3.6c0.4 0 0.8-0.3 0.8-0.8 0-0.4-0.3-0.8-0.8-0.8zM111.7 112.4h-7.9c-0.4 0-0.8 0.3-0.8 0.8 0 0.4 0.3 0.8 0.8 0.8h7.9c0.4 0 0.8-0.3 0.8-0.8 0-0.4-0.4-0.8-0.8-0.8M117.6 112.4h-2.5c-0.4 0-0.8 0.3-0.8 0.8 0 0.4 0.3 0.8 0.8 0.8h2.5c0.4 0 0.8-0.3 0.8-0.8 0-0.4-0.3-0.8-0.8-0.8M8.6 17.2h11.3c0.4 0 0.8-0.3 0.8-0.8 0-0.4-0.3-0.8-0.8-0.8H8.6c-0.4 0-0.8 0.3-0.8 0.8s0.4 0.8 0.8 0.8M1.3 17.2h3.6c0.4 0 0.8-0.3 0.8-0.8 0-0.4-0.3-0.8-0.8-0.8H1.3c-0.4 0-0.8 0.3-0.8 0.8s0.3 0.8 0.8 0.8M9.1 19.6H1.3c-0.4 0-0.8 0.3-0.8 0.8 0 0.4 0.3 0.8 0.8 0.8h7.9c0.4 0 0.8-0.3 0.8-0.8-0.1-0.5-0.5-0.8-0.9-0.8M15.8 20.3c0-0.4-0.3-0.8-0.8-0.8h-2.5c-0.4 0-0.8 0.3-0.8 0.8 0 0.4 0.3 0.8 0.8 0.8H15c0.5 0 0.8-0.4 0.8-0.8M34.7 108H23.5c-0.4 0-0.8 0.3-0.8 0.8 0 0.4 0.3 0.8 0.8 0.8h11.3c0.4 0 0.8-0.3 0.8-0.8-0.1-0.5-0.4-0.8-0.9-0.8M42.1 108h-3.6c-0.4 0-0.8 0.3-0.8 0.8 0 0.4 0.3 0.8 0.8 0.8h3.6c0.4 0 0.8-0.3 0.8-0.8-0.1-0.5-0.4-0.8-0.8-0.8M42.1 104.1h-7.9c-0.4 0-0.8 0.3-0.8 0.8 0 0.4 0.3 0.8 0.8 0.8h7.9c0.4 0 0.8-0.3 0.8-0.8-0.1-0.4-0.4-0.8-0.8-0.8M30.8 105.6c0.4 0 0.8-0.3 0.8-0.8 0-0.4-0.3-0.8-0.8-0.8h-2.5c-0.4 0-0.8 0.3-0.8 0.8 0 0.4 0.3 0.8 0.8 0.8z" fill="black"></path><path d="M78.2 112.8h-4.7L70.1 97h37.2c3.7 0 6.6-3 6.6-6.6V42c7.9-1.7 13.6-8.6 13.6-16.7 0-9.4-7.7-17.1-17.1-17.1s-17.1 7.7-17.1 17.1c0 1.1 0.1 2.1 0.3 3.1H62.7v-8.6c0.1-0.2 0-0.5-0.2-0.7l-7.3-7.3c-0.1-0.1-0.1-0.1-0.2-0.1h-6.5c-0.2-2-1.9-3.6-3.9-3.6s-3.7 1.6-3.9 3.6h-1.3c-0.2-2-1.9-3.6-3.9-3.6s-3.7 1.6-3.9 3.6h-0.9c-1.6 0-3 1.3-3 3v13.9h-5.5c-3.7 0-6.6 3-6.6 6.6v55.3c0 3.7 3 6.6 6.6 6.6h37.2L56 112.9h-4.7c-1.7 0-3.2 1.4-3.2 3.2v1c0 1.7 1.4 3.2 3.2 3.2h27.1c1.7 0 3.2-1.4 3.2-3.2v-1c-0.2-1.9-1.6-3.3-3.4-3.3M110.4 9.7c8.6 0 15.6 7 15.6 15.6 0 7.6-5.4 14.1-12.9 15.4-0.9 0.2-1.8 0.2-2.7 0.2-7.2 0-13.5-4.9-15.2-11.9-0.3-1.2-0.4-2.4-0.4-3.7 0-8.6 7-15.6 15.6-15.6m-55 4.4l4.8 4.8h-4.8zM44.5 9.5c1.2 0 2.2 0.9 2.4 2.1H42c0.3-1.3 1.3-2.1 2.5-2.1m-9.1 0c1.2 0 2.2 0.9 2.4 2.1h-4.9c0.3-1.3 1.3-2.1 2.5-2.1m-6.3 5c0-0.8 0.7-1.5 1.5-1.5h7.1c-0.4 0.8-1.2 1.4-2.2 1.4-0.4 0-0.8 0.3-0.8 0.8 0 0.4 0.3 0.8 0.8 0.8 1.8 0 3.3-1.2 3.8-2.9h7.6c-0.4 0.8-1.2 1.4-2.2 1.4-0.4 0-0.8 0.3-0.8 0.8 0 0.4 0.3 0.8 0.8 0.8 1.8 0 3.3-1.2 3.8-2.9H54v6.6c0 0.4 0.3 0.8 0.8 0.8h6.6V54c0 0.8-0.7 1.5-1.5 1.5H30.5c-0.8 0-1.5-0.7-1.5-1.5V14.5zM17 35.1c0-2.8 2.3-5.1 5.1-5.1h5.5v24c0 1.6 1.3 3 3 3h29.2c1.6 0 3-1.3 3-3V29.9H94c2.1 7.4 8.8 12.5 16.5 12.5 0.7 0 1.3-0.1 2-0.1v45.5H17z m5.1 60.4c-2.8 0-5.1-2.3-5.1-5.1v-1h95.5v1c0 2.8-2.3 5.1-5.1 5.1H22.1M60.8 97h7.7l3.4 15.8H57.4z m19.1 19.9c0 0.9-0.7 1.6-1.6 1.6H51.2c-0.9 0-1.6-0.7-1.6-1.6v-1c0-0.9 0.7-1.6 1.6-1.6h27c0.9 0 1.6 0.7 1.6 1.6v1z" fill="black"></path><path d="M83.4 54.1c-2.6 2.5-2.6 6.6-0.1 9.2 1.3 1.3 3 2 4.6 2s3.3-0.6 4.5-1.8c2.6-2.5 2.6-6.6 0.1-9.2-2.4-2.7-6.5-2.7-9.1-0.2m8 8.2c-2 1.9-5.1 1.9-7-0.1s-1.9-5.1 0.1-7 5.1-1.9 7 0.1c1.9 1.9 1.9 5.1-0.1 7" fill="black"></path><path d="M104.3 54.5c-0.1-0.4-0.5-0.6-0.9-0.5L99 55c-0.5-1.5-1.2-2.8-2.3-4l3.2-3.2c0.3-0.3 0.3-0.8 0-1.1s-0.8-0.3-1.1 0l-3.2 3.2c-1.2-1.1-2.6-1.8-4.1-2.3l1.1-4.3c0.1-0.4-0.1-0.8-0.5-0.9s-0.8 0.1-0.9 0.5l-1.1 4.3q-2.25-0.45-4.5 0L84.4 43c-0.1-0.4-0.5-0.6-0.9-0.5s-0.6 0.5-0.5 0.9l1.2 4.3c-1.4 0.5-2.7 1.2-3.9 2.3l-3.1-3.1c-0.3-0.3-0.8-0.3-1.1 0s-0.3 0.8 0 1.1l3.1 3.1c-1 1.2-1.8 2.5-2.3 4L72.7 54c-0.4-0.1-0.8 0.1-0.9 0.5s0.1 0.8 0.5 0.9l4.2 1.1c-0.3 1.5-0.3 3.1 0 4.6l-4.2 1.1c-0.4 0.1-0.6 0.5-0.5 0.9 0.1 0.3 0.4 0.6 0.7 0.6h0.2l4.2-1.1q0.6 1.65 1.5 3l-1.6 1.6c-0.6-0.2-1.2-0.1-1.7 0.3L64.7 77.8c-1 1-1 2.7 0 3.7l0.5 0.5c0.5 0.5 1.2 0.8 1.8 0.8 0.7 0 1.3-0.3 1.8-0.8l10.4-10.4c0.3-0.3 0.5-0.7 0.5-1.1 0-0.2 0-0.4-0.1-0.6l1.6-1.6c0.9 0.7 2 1.2 3 1.5L83.1 74c-0.1 0.4 0.1 0.8 0.5 0.9h0.2c0.3 0 0.6-0.2 0.7-0.6l1.1-4.2c0.7 0.1 1.5 0.2 2.3 0.2s1.6-0.1 2.3-0.2l1.1 4.2c0.1 0.3 0.4 0.6 0.7 0.6h0.2c0.4-0.1 0.6-0.5 0.5-0.9l-1.1-4.2c1.4-0.5 2.8-1.2 3.9-2.3l3.1 3.1c0.1 0.1 0.3 0.2 0.5 0.2s0.4-0.1 0.5-0.2c0.3-0.3 0.3-0.8 0-1.1l-3.1-3.1c1-1.2 1.8-2.5 2.3-3.9l4.3 1.2h0.2c0.3 0 0.6-0.2 0.7-0.6s-0.1-0.8-0.5-0.9L99.4 61q0.45-2.25 0-4.5l4.3-1.1c0.4-0.1 0.7-0.5 0.6-0.9M67.8 80.9c-0.4 0.4-1.1 0.4-1.6 0l-0.5-0.5c-0.4-0.4-0.4-1.1 0-1.6l10.5-10.4 2 2z m10.8-12.2l-0.7-0.7 1.4-1.4 0.7 0.7zM95 66c-4 3.9-10.5 3.8-14.4-0.2s-3.8-10.5 0.2-14.4 10.5-3.8 14.4 0.2S99.1 62.1 95 66M110.4 27.4h0.2l2 4c0.1 0.3 0.4 0.4 0.7 0.4 0.1 0 0.2 0 0.3-0.1 0.4-0.2 0.5-0.6 0.3-1l-2-4 0.1-0.1c0-0.1 0.1-0.1 0.1-0.2 0.1-0.1 0.1-0.2 0.2-0.4 0-0.1 0.1-0.1 0.1-0.2 0.1-0.2 0.1-0.4 0.1-0.6v-0.1l8.1-3.7c0.4-0.2 0.5-0.6 0.4-1-0.2-0.4-0.6-0.5-1-0.4l-8.1 3.7q-0.6-0.6-1.5-0.6c-1.2 0-2.1 0.9-2.1 2.1 0 1.3 0.9 2.2 2.1 2.2M110.4 14.2c0.4 0 0.8-0.3 0.8-0.8v-1.8c0-0.4-0.3-0.8-0.8-0.8-0.4 0-0.8 0.3-0.8 0.8v1.8c0 0.5 0.4 0.8 0.8 0.8M96.7 26.1h1.8c0.4 0 0.8-0.3 0.8-0.8 0-0.4-0.3-0.8-0.8-0.8h-1.8c-0.4 0-0.8 0.3-0.8 0.8 0.1 0.4 0.4 0.8 0.8 0.8M110.4 36.3c-0.4 0-0.8 0.3-0.8 0.8v1.8c0 0.4 0.3 0.8 0.8 0.8 0.4 0 0.8-0.3 0.8-0.8v-1.8c-0.1-0.4-0.4-0.8-0.8-0.8M122.2 26.1h1.8c0.4 0 0.8-0.3 0.8-0.8 0-0.4-0.3-0.8-0.8-0.8h-1.8c-0.4 0-0.8 0.3-0.8 0.8 0 0.4 0.4 0.8 0.8 0.8M58.3 63.1H23.5c-0.4 0-0.8 0.3-0.8 0.8 0 0.4 0.3 0.8 0.8 0.8h34.9c0.4 0 0.8-0.3 0.8-0.8-0.1-0.5-0.5-0.8-0.9-0.8M58.3 68.9H23.5c-0.4 0-0.8 0.3-0.8 0.8 0 0.4 0.3 0.8 0.8 0.8h34.9c0.4 0 0.8-0.3 0.8-0.8-0.1-0.5-0.5-0.8-0.9-0.8M58.3 74.6H23.5c-0.4 0-0.8 0.3-0.8 0.8 0 0.4 0.3 0.8 0.8 0.8h34.9c0.4 0 0.8-0.3 0.8-0.8-0.1-0.4-0.5-0.8-0.9-0.8M47.8 80.4H23.5c-0.4 0-0.8 0.3-0.8 0.8 0 0.4 0.3 0.8 0.8 0.8h24.3c0.4 0 0.8-0.3 0.8-0.8-0.1-0.5-0.4-0.8-0.8-0.8M36.3 27.9H54c0.4 0 0.8-0.3 0.8-0.8 0-0.4-0.3-0.8-0.8-0.8H36.3c-0.4 0-0.8 0.3-0.8 0.8s0.4 0.8 0.8 0.8M36.3 33.7H54c0.4 0 0.8-0.3 0.8-0.8 0-0.4-0.3-0.8-0.8-0.8H36.3c-0.4 0-0.8 0.3-0.8 0.8s0.4 0.8 0.8 0.8M36.3 39.5H54c0.4 0 0.8-0.3 0.8-0.8 0-0.4-0.3-0.8-0.8-0.8H36.3c-0.4 0-0.8 0.3-0.8 0.8 0 0.4 0.4 0.8 0.8 0.8M36.3 45.2h12.4c0.4 0 0.8-0.3 0.8-0.8 0-0.4-0.3-0.8-0.8-0.8H36.3c-0.4 0-0.8 0.3-0.8 0.8s0.4 0.8 0.8 0.8" fill="black"></path></svg></g></svg></g></svg></g><defs><mask></mask></defs></svg><rect width="395.52" height="83.61873586403003" fill="black" stroke="none" visibility="hidden"></rect></g></mask></svg><rect width="395.52" height="83.61873586403003" fill="black" stroke="none" visibility="hidden"></rect></g></mask><linearGradient x1="0" x2="1" y1="0.5" y2="0.5" id="3f724687-66b0-404a-bc63-8cd19fbeeb87"><stop stop-color="#f00b51" offset="0"></stop><stop stop-color="#730062" offset="1"></stop></linearGradient><rect width="395.5199890136719" height="83.61873626708984" fill="url(#3f724687-66b0-404a-bc63-8cd19fbeeb87)" mask="url(#54ed8840-5b29-4465-9d2e-5793962bc862)" data-fill-palette-color="accent"></rect></svg><rect width="395.52" height="83.61873586403003" fill="none" stroke="none" visibility="hidden"></rect></g></svg>